<svg width="24" height="24" viewBox="0 0 24 24" fill="none" xmlns="http://www.w3.org/2000/svg">
    <g clip-path="url(#clip0)">
        <path d="M23.7945 0.206014C23.5957 0.00702991 23.2972 -0.0541888 23.0362 0.0503893L0.442497 9.0878C0.183934 9.19115 0.0108251 9.43739 0.000934455 9.71564C-0.00895617 9.99389 0.146294 10.2518 0.396747 10.3732L9.30614 14.6943L13.6272 23.6037C13.745 23.8467 13.9911 24 14.2597 24C14.268 24 14.2764 23.9999 14.2848 23.9995C14.563 23.9896 14.8092 23.8165 14.9126 23.558L23.9502 0.964358C24.0547 0.703217 23.9934 0.404905 23.7945 0.206014Z" fill="#FF00FF"/>
        <path d="M23.794 0.206055L9.30566 14.6943L13.6267 23.6037C13.7445 23.8467 13.9906 24 14.2592 24C14.2675 24 14.2759 23.9999 14.2843 23.9995C14.5625 23.9896 14.8087 23.8165 14.9121 23.558L23.9497 0.964398C24.0541 0.703258 23.9929 0.404945 23.794 0.206055Z" fill="#5A4687"/>
    </g>
    <defs>
        <clipPath id="clip0">
            <rect width="24" height="24" fill="white"/>
        </clipPath>
    </defs>
</svg>