<svg width="31" height="31" viewBox="0 0 31 31" fill="none" xmlns="http://www.w3.org/2000/svg">
<path d="M15.5 2.62012C6.9395 2.62012 0 9.55962 0 18.1202C0 21.8504 1.31845 25.2729 3.51393 27.9474C3.85265 25.2353 6.56148 22.9415 10.3599 21.8552C11.7476 23.1482 13.5401 23.9327 15.5 23.9327C17.4137 23.9327 19.1711 23.1877 20.5447 21.9489C24.3759 23.1302 27.0266 25.558 27.1137 28.38C29.5301 25.6464 31 22.0559 31 18.1202C31 9.55962 24.0605 2.62012 15.5 2.62012ZM15.5 22.0971C14.5106 22.0971 13.5782 21.8252 12.7503 21.3544C10.7552 20.2191 9.38156 17.896 9.38156 15.2138C9.38156 11.4184 12.1262 8.33043 15.5 8.33043C18.8742 8.33043 21.6185 11.4184 21.6185 15.2138C21.6185 17.9372 20.2019 20.289 18.1571 21.4045C17.3516 21.8438 16.4528 22.0971 15.5 22.0971Z" fill="#D9E2E9"/>
</svg>